<svg width="52" height="51" viewBox="0 0 52 51" fill="none" xmlns="http://www.w3.org/2000/svg">
<path d="M49.35 36.2412L49.3453 33.9412L50.1785 33.9395C50.4084 33.9406 50.6283 33.8466 50.7862 33.6799C50.9275 33.5213 51.0072 33.3169 51.01 33.1045L49.4602 4.77763C49.3134 2.4849 47.4081 0.701515 45.1106 0.706247C42.8131 0.71098 40.9152 2.5022 40.7779 4.79552L39.3448 33.1286C39.3383 33.3556 39.4193 33.576 39.571 33.7449C39.7365 33.8955 39.956 33.9732 40.1797 33.9601L41.0129 33.9584L41.0177 36.2583L39.4493 39.4195C39.3309 39.6554 39.3315 39.9336 39.4508 40.1694L44.4708 50.1579C44.5117 50.2498 44.5717 50.3318 44.6462 50.3992C44.7437 50.4889 44.861 50.5546 44.9884 50.5901L45.4465 50.5892C45.5742 50.5531 45.6912 50.487 45.7879 50.3969C45.8626 50.3292 45.9218 50.2469 45.9623 50.1548L50.9411 40.1457C51.0594 39.9095 51.0589 39.6312 50.9396 39.3959L49.35 36.2412ZM41.051 32.2918L41.3876 25.6252L48.9363 25.6097L49.3419 32.2747L41.051 32.2918ZM42.4445 4.83399C42.4414 3.35671 43.6363 2.15647 45.1136 2.15342C46.5909 2.15038 47.7907 3.34569 47.7938 4.82297L48.8414 23.9853L41.4758 24.0005L41.5639 22.3338L46.2049 22.3242C46.6654 22.3233 47.0373 21.9494 47.0364 21.4893C47.0354 21.0287 46.662 20.6568 46.2014 20.6578L41.6439 20.6672L42.4445 4.83399ZM47.6788 33.9446L47.6822 35.6111L42.6828 35.6214L42.6794 33.9549L47.6788 33.9446ZM46.0377 46.2468L46.0261 40.614L46.8593 40.6122C47.3195 40.6113 47.6918 40.2374 47.6908 39.7773C47.6899 39.3171 47.316 38.9448 46.8559 38.9458L43.5229 38.9526C43.0628 38.9536 42.6905 39.3274 42.6914 39.7876C42.6924 40.2477 43.0662 40.6201 43.5264 40.6191L44.3596 40.6174L44.3712 46.2503L41.125 39.7908L42.3697 37.2885L48.0022 37.2769L49.2572 39.7741L46.0377 46.2468Z" fill="#FFBB01"/>
<path d="M29.3014 11.4851C29.7615 11.4841 30.1339 11.1103 30.1329 10.6501C30.132 10.19 29.7581 9.81767 29.298 9.81862L7.63386 9.86324C7.17371 9.86419 6.8014 10.238 6.80234 10.6982L6.80921 14.0311C6.81016 14.4913 7.18401 14.8636 7.64416 14.8626L29.3083 14.818C29.7684 14.8171 30.1407 14.4432 30.1398 13.9831C30.1388 13.5229 29.765 13.1506 29.3048 13.1516L8.47396 13.1945L8.47053 11.528L29.3014 11.4851Z" fill="#FFBB01"/>
<path d="M30.1501 18.9824C30.1491 18.5223 29.7753 18.15 29.3151 18.1509L10.984 18.1887C10.5238 18.1896 10.1515 18.5635 10.1524 19.0236C10.1534 19.4838 10.5272 19.8561 10.9874 19.8552L29.3186 19.8174C29.7787 19.8165 30.151 19.4426 30.1501 18.9824Z" fill="#FFBB01"/>
<path d="M5.99485 23.1983C5.9958 23.6585 6.36965 24.0308 6.8298 24.0299L20.1616 24.0024C20.6217 24.0015 20.994 23.6276 20.9931 23.1675C20.9921 22.7073 20.6183 22.335 20.1581 22.3359L6.82637 22.3634C6.36622 22.3643 5.9939 22.7382 5.99485 23.1983Z" fill="#FFBB01"/>
<path d="M25.1576 22.3256C24.6974 22.3266 24.3251 22.7004 24.3261 23.1606C24.327 23.6208 24.7009 23.9931 25.161 23.9921L28.494 23.9853C28.9541 23.9843 29.3264 23.6105 29.3255 23.1503C29.3245 22.6901 28.9507 22.3178 28.4905 22.3188L25.1576 22.3256Z" fill="#FFBB01"/>
<path d="M17.6687 27.3405C17.6678 26.8804 17.2939 26.5081 16.8338 26.509L6.83494 26.5296C6.37479 26.5305 6.00248 26.9044 6.00343 27.3645C6.00437 27.8247 6.37823 28.197 6.83838 28.196L16.8372 28.1754C17.2973 28.1745 17.6697 27.8006 17.6687 27.3405Z" fill="#FFBB01"/>
<path d="M16.8441 31.5085C16.8431 31.0483 16.4693 30.676 16.0091 30.677L6.84352 30.6958C6.38337 30.6968 6.01105 31.0706 6.012 31.5308C6.01295 31.9909 6.3868 32.3633 6.84695 32.3623L16.0125 32.3434C16.4727 32.3425 16.845 31.9686 16.8441 31.5085Z" fill="#FFBB01"/>
<path d="M6.85209 34.862C6.39194 34.8629 6.01963 35.2368 6.02058 35.6969C6.02152 36.1571 6.39538 36.5294 6.85553 36.5284L12.6882 36.5164C13.1483 36.5155 13.5206 36.1416 13.5197 35.6815C13.5187 35.2213 13.1449 34.849 12.6847 34.8499L6.85209 34.862Z" fill="#FFBB01"/>
<path d="M33.4452 0.644402L3.44877 0.706186C2.06832 0.709029 0.951371 1.83059 0.954215 3.21104L1.03316 41.5398C1.036 42.9203 2.15756 44.0372 3.53801 44.0344L17.703 44.0052C18.1632 44.0043 18.5355 43.6304 18.5345 43.1703C18.5336 42.7101 18.1597 42.3378 17.6996 42.3387L3.53458 42.3679C3.07443 42.3689 2.70058 41.9966 2.69963 41.5364L2.63098 8.20701L34.2939 8.1418L34.3625 41.4712C34.3635 41.9313 33.9912 42.3052 33.531 42.3061L31.0313 42.3113C30.5712 42.3122 30.1989 42.6861 30.1998 43.1462C30.2008 43.6064 30.5746 43.9787 31.0348 43.9778L33.5345 43.9726C34.9149 43.9698 36.0319 42.8482 36.029 41.4678L35.9501 3.13896C35.9472 1.75851 34.8257 0.641559 33.4452 0.644402V0.644402ZM2.62755 6.54055L2.62068 3.20761C2.61974 2.74746 2.99205 2.3736 3.4522 2.37266L33.4487 2.31087C33.9088 2.30992 34.2827 2.68224 34.2836 3.14239L34.2905 6.47533L2.62755 6.54055Z" fill="#FFBB01"/>
<path d="M24.3431 31.4929C22.9626 31.4958 21.8457 32.6173 21.8485 33.9978C21.8514 35.3782 22.9729 36.4952 24.3534 36.4923C25.7338 36.4895 26.8508 35.3679 26.8479 33.9875C26.8451 32.607 25.7235 31.4901 24.3431 31.4929ZM24.3499 34.8259C23.8898 34.8268 23.5159 34.4545 23.515 33.9944C23.5141 33.5342 23.8864 33.1603 24.3465 33.1594C24.8067 33.1585 25.1805 33.5308 25.1815 33.9909C25.1824 34.4511 24.8101 34.8249 24.3499 34.8259Z" fill="#FFBB01"/>
<path d="M31.0141 33.9789C31.011 33.0529 30.4966 32.2041 29.6763 31.7737C29.9471 30.8878 29.7059 29.9253 29.0499 29.2716C28.3935 28.6183 27.43 28.3811 26.5453 28.6555C26.1099 27.8394 25.2597 27.3301 24.3345 27.332C23.4094 27.334 22.5613 27.8467 22.1293 28.6646C21.2434 28.3938 20.2809 28.635 19.6272 29.291C18.9739 29.9474 18.7367 30.9109 19.0111 31.7956C18.1946 32.231 17.6858 33.0812 17.6877 34.0064C17.6896 34.9315 18.2019 35.78 19.0202 36.2116C18.7494 37.0955 18.9886 38.0564 19.6417 38.71C19.8048 38.872 19.9902 39.0092 20.1926 39.1174L20.2147 49.8327C20.217 50.1692 20.4215 50.471 20.733 50.5981C21.0433 50.7281 21.4016 50.6582 21.6407 50.4213L24.3764 47.6662L27.1235 50.41C27.2808 50.5659 27.4942 50.6522 27.7155 50.6505C27.825 50.6531 27.9331 50.6301 28.0319 50.5831C28.3429 50.4547 28.5461 50.152 28.547 49.8155L28.525 39.1084C28.727 38.9993 28.9118 38.8614 29.0742 38.6992C29.7246 38.0424 29.9599 37.0809 29.6854 36.1982C30.5064 35.7628 31.0181 34.9082 31.0141 33.9789V33.9789ZM24.9643 45.8984C24.8078 45.7408 24.5944 45.6526 24.3723 45.653C24.1501 45.6535 23.9371 45.7426 23.7812 45.9008L21.877 47.821L21.8597 39.4057L22.1513 39.3298C22.5866 40.1463 23.4368 40.6551 24.362 40.6532C25.2872 40.6513 26.1352 40.139 26.5672 39.3207L26.8591 39.3954L26.8764 47.8107L24.9643 45.8984ZM28.5161 34.8173L28.3746 34.8176C28.0352 34.8167 27.7289 35.0215 27.6006 35.3359C27.4731 35.6482 27.5462 36.0065 27.7859 36.2436L27.8862 36.3435C28.2099 36.6679 28.211 37.1927 27.8886 37.5185C27.7969 37.6151 27.6823 37.6869 27.5555 37.7275L27.4306 37.7277C27.1682 37.769 26.902 37.6828 26.7136 37.4957L26.6133 37.3958C26.3744 37.1562 26.0142 37.0846 25.702 37.215C25.3894 37.3454 25.187 37.6522 25.1897 37.9907L25.1901 38.1571C25.191 38.6172 24.8187 38.9911 24.3586 38.992C23.8984 38.993 23.5246 38.6207 23.5236 38.1605L23.5233 38.0189C23.5242 37.6796 23.3194 37.3733 23.005 37.245C22.9044 37.2053 22.7966 37.186 22.6884 37.1874C22.467 37.1867 22.254 37.2742 22.0973 37.4303L21.9974 37.5306C21.8098 37.7186 21.5439 37.8058 21.2814 37.7652L21.1565 37.7655C21.0295 37.7259 20.9146 37.6545 20.8225 37.5578C20.4988 37.2334 20.4977 36.7086 20.8201 36.3829L20.9285 36.283C21.1672 36.0444 21.2389 35.6859 21.1097 35.3741C20.9801 35.0607 20.6733 34.8566 20.334 34.8594L20.1839 34.8597C19.7237 34.8606 19.3498 34.4883 19.3489 34.0282C19.348 33.5676 19.7203 33.1942 20.1804 33.1932L20.322 33.1929C20.6613 33.1938 20.9677 32.9886 21.096 32.6746C21.2235 32.3623 21.1504 32.004 20.9106 31.7665L20.8103 31.667C20.483 31.343 20.4803 30.8153 20.8038 30.488C21.1278 30.1606 21.6555 30.1575 21.9829 30.4815L22.0832 30.5895C22.3213 30.8282 22.6803 30.8999 22.9917 30.7707C23.3055 30.6411 23.5091 30.3343 23.5068 29.995L23.5064 29.8282C23.5055 29.368 23.8778 28.9942 24.338 28.9932C24.7981 28.9923 25.172 29.3646 25.1729 29.8247L25.1732 29.9663C25.1723 30.3061 25.3771 30.612 25.6915 30.7403C26.0034 30.8678 26.3621 30.7951 26.5992 30.555L26.6991 30.4551C27.0227 30.1277 27.5508 30.1246 27.8782 30.4482C28.2055 30.7722 28.2082 31.2999 27.8846 31.6272L27.7766 31.7275C27.5379 31.9656 27.4662 32.3246 27.595 32.636C27.7246 32.9498 28.0318 33.1534 28.3711 33.1511L28.5127 33.1508C28.9729 33.1499 29.3467 33.5222 29.3477 33.9823C29.3486 34.4425 28.9763 34.8163 28.5161 34.8173V34.8173Z" fill="#FFBB01"/>
</svg>
