<svg width="52" height="51" viewBox="0 0 52 51" fill="none" xmlns="http://www.w3.org/2000/svg">
<path d="M50.1668 25.1118L31.1084 25.1511C30.6482 25.152 30.2758 25.5259 30.2768 25.9861C30.2777 26.4463 30.6516 26.8187 31.1118 26.8178L49.3369 26.7802L49.354 35.1135L45.1874 35.1221L45.1754 29.2888C45.1744 28.8286 44.8005 28.4562 44.3403 28.4572C43.8801 28.4581 43.5078 28.832 43.5087 29.2922L43.5207 35.1255L21.0208 35.1719L21.0036 26.8386L26.0036 26.8283C26.4638 26.8273 26.8362 26.4534 26.8352 25.9932C26.8343 25.533 26.4604 25.1607 26.0002 25.1616L20.1668 25.1736C19.7066 25.1746 19.3343 25.5485 19.3352 26.0087L19.3558 36.0087C19.3568 36.4689 19.7307 36.8412 20.1909 36.8403L27.6909 36.8248L27.6943 38.4915L20.1943 38.5069C19.7341 38.5079 19.3617 38.8818 19.3627 39.342L19.3747 45.1753L16.8747 45.1804L16.873 44.3471C16.872 43.8869 16.4981 43.5146 16.0379 43.5155L13.5379 43.5207L13.5294 39.354C13.5284 38.8938 13.1545 38.5214 12.6943 38.5224C12.2341 38.5233 11.8618 38.8972 11.8627 39.3574L11.873 44.3574C11.8739 44.8176 12.2478 45.19 12.708 45.189L15.208 45.1839L15.2115 46.8505L6.87816 46.8677L6.87473 45.201L9.37472 45.1959C9.83493 45.1949 10.2073 44.8211 10.2063 44.3608L10.196 39.3609C10.1951 38.9007 9.8212 38.5283 9.36099 38.5292C8.90079 38.5302 8.52843 38.9041 8.52938 39.3643L8.53796 43.5309L6.03796 43.5361C5.57776 43.537 5.2054 43.9109 5.20635 44.3711L5.20807 45.2045L1.87474 45.2113C1.41453 45.2123 1.04218 45.5862 1.04312 46.0464C1.04407 46.5066 1.41797 46.879 1.87817 46.878L5.2115 46.8711L5.21321 47.7045C5.21416 48.1647 5.58806 48.537 6.04826 48.5361L16.0482 48.5155C16.5084 48.5145 16.8808 48.1406 16.8799 47.6804L16.8781 46.8471L19.3781 46.842L19.3833 49.342C19.3842 49.8022 19.7581 50.1745 20.2183 50.1736L50.2183 50.1118C50.6785 50.1108 51.0508 49.7369 51.0499 49.2767L51.0293 39.2768C51.0283 38.8166 50.6544 38.4442 50.1942 38.4451L42.6943 38.4606L42.6908 36.7939L50.1908 36.7785C50.651 36.7775 51.0234 36.4036 51.0224 35.9434L51.0018 25.9435C51.0009 25.4832 50.627 25.1109 50.1668 25.1118ZM49.3815 48.4468L21.0482 48.5052L21.0311 40.1719L43.531 40.1255L43.543 45.9589C43.544 46.4191 43.9179 46.7914 44.3781 46.7905C44.8383 46.7895 45.2106 46.4156 45.2097 45.9554L45.1977 40.1221L49.3643 40.1135L49.3815 48.4468ZM41.0276 38.464L29.3609 38.488L29.3575 36.8214L41.0242 36.7974L41.0276 38.464Z" fill="#FFBB01"/>
<path d="M26.0069 28.4949C24.6263 28.4978 23.5092 29.6195 23.5121 31.0001C23.5149 32.3811 24.6366 33.4978 26.0172 33.4949C27.3978 33.4921 28.5149 32.3708 28.5121 30.9898C28.5092 29.6092 27.3875 28.4921 26.0069 28.4949ZM26.0138 31.8283C25.5536 31.8292 25.1797 31.4569 25.1787 30.9967C25.1778 30.5365 25.5501 30.1626 26.0103 30.1616C26.4705 30.1607 26.8444 30.533 26.8454 30.9932C26.8463 31.4534 26.474 31.8273 26.0138 31.8283Z" fill="#FFBB01"/>
<path d="M31.0174 33.4846C31.4776 33.4837 31.85 33.1098 31.849 32.6496L31.8421 29.3163C31.8412 28.8561 31.4673 28.4837 31.0071 28.4846C30.5469 28.4856 30.1745 28.8595 30.1755 29.3197L30.1823 32.653C30.1833 33.1132 30.5572 33.4856 31.0174 33.4846Z" fill="#FFBB01"/>
<path d="M35.1823 32.6427L35.1754 29.3094C35.1744 28.8492 34.8005 28.4768 34.3403 28.4778C33.8801 28.4787 33.5078 28.8526 33.5087 29.3128L33.5156 32.6462C33.5165 33.1064 33.8904 33.4787 34.3506 33.4778C34.8108 33.4768 35.1832 33.1029 35.1823 32.6427Z" fill="#FFBB01"/>
<path d="M38.5155 32.6359L38.5086 29.3025C38.5077 28.8423 38.1338 28.47 37.6736 28.4709C37.2134 28.4719 36.841 28.8458 36.842 29.306L36.8488 32.6393C36.8498 33.0995 37.2237 33.4718 37.6839 33.4709C38.1441 33.47 38.5165 33.0961 38.5155 32.6359Z" fill="#FFBB01"/>
<path d="M41.8487 32.629L41.8419 29.2957C41.8409 28.8355 41.467 28.4631 41.0068 28.464C40.5466 28.465 40.1743 28.8389 40.1752 29.2991L40.1821 32.6324C40.183 33.0926 40.5569 33.465 41.0171 33.464C41.4773 33.4631 41.8497 33.0892 41.8487 32.629Z" fill="#FFBB01"/>
<path d="M27.7045 43.4915C27.2443 43.4924 26.8719 43.8663 26.8729 44.3265C26.8738 44.7868 26.5014 45.1606 26.0412 45.1616C25.581 45.1625 25.2071 44.7902 25.2062 44.33C25.2052 43.8698 25.5776 43.4959 26.0378 43.4949C26.498 43.494 26.8704 43.1201 26.8694 42.6599C26.8685 42.1997 26.4946 41.8273 26.0344 41.8283C24.6538 41.8311 23.5367 42.9528 23.5395 44.3334C23.5424 45.7144 24.6641 46.8311 26.0447 46.8283C27.4253 46.8254 28.5424 45.7041 28.5395 44.3231C28.5386 43.8629 28.1647 43.4906 27.7045 43.4915Z" fill="#FFBB01"/>
<path d="M31.0346 41.818C30.5744 41.8189 30.202 42.1928 30.2029 42.653L30.2098 45.9863C30.2108 46.4465 30.5847 46.8189 31.0449 46.818C31.5051 46.817 31.8774 46.4431 31.8765 45.9829L31.8696 42.6496C31.8687 42.1894 31.4948 41.817 31.0346 41.818Z" fill="#FFBB01"/>
<path d="M34.3678 41.8111C33.9076 41.8121 33.5352 42.1859 33.5362 42.6462L33.5431 45.9795C33.544 46.4397 33.9179 46.812 34.3781 46.8111C34.8383 46.8101 35.2107 46.4362 35.2097 45.976L35.2029 42.6427C35.2019 42.1825 34.828 41.8102 34.3678 41.8111Z" fill="#FFBB01"/>
<path d="M37.7011 41.8042C37.2408 41.8052 36.8685 42.1791 36.8694 42.6393L36.8763 45.9726C36.8773 46.4328 37.2511 46.8052 37.7114 46.8042C38.1716 46.8033 38.5439 46.4294 38.543 45.9692L38.5361 42.6359C38.5352 42.1756 38.1613 41.8033 37.7011 41.8042Z" fill="#FFBB01"/>
<path d="M41.0343 41.7974C40.5741 41.7983 40.2017 42.1722 40.2027 42.6324L40.2095 45.9657C40.2105 46.4259 40.5844 46.7983 41.0446 46.7974C41.5048 46.7964 41.8772 46.4225 41.8762 45.9623L41.8693 42.629C41.8684 42.1688 41.4945 41.7964 41.0343 41.7974Z" fill="#FFBB01"/>
<path d="M7.32865 30.8752C7.43902 30.9238 7.55829 30.9488 7.67873 30.9493C8.06487 30.9428 8.39553 30.6716 8.47817 30.2946C8.5604 29.9172 8.37325 29.5331 8.02541 29.3654C4.10448 27.5782 1.9574 23.3016 2.86711 19.0895C3.7764 14.8774 7.49702 11.8676 11.8061 11.8575C12.6516 11.8554 13.4933 11.9713 14.3068 12.2023C14.7221 12.3215 15.1591 12.1033 15.3141 11.7006C17.4 6.25682 22.6242 2.66125 28.4538 2.65657C35.0937 2.67545 40.8405 7.27788 42.3101 13.7531C42.3853 14.087 42.6568 14.3408 42.9946 14.3934C46.6327 14.967 49.3162 18.0974 49.3266 21.7803C49.3234 22.0228 49.3073 22.2649 49.278 22.5055C49.248 22.7293 49.3103 22.9563 49.4502 23.1334C49.5906 23.3105 49.7967 23.4232 50.0218 23.4455C50.2444 23.4683 50.4668 23.4007 50.6386 23.2575C50.8109 23.1147 50.9183 22.9086 50.937 22.6856C50.973 22.384 50.9919 22.0808 50.9933 21.7769C51.0015 17.48 48.0076 13.7605 43.8081 12.85C41.9639 5.87582 35.6644 1.01086 28.4504 0.989908C22.1906 0.982863 16.5215 4.68514 14.0114 10.4199C13.2856 10.2655 12.5448 10.1885 11.8027 10.1909C6.71479 10.2067 2.3235 13.761 1.24772 18.734C0.172347 23.7069 2.70188 28.7582 7.32865 30.8752V30.8752Z" fill="#FFBB01"/>
<path d="M14.3466 31.5276C14.4154 31.5393 14.4862 31.5391 14.5549 31.5272C15.5045 31.2835 16.4152 30.9085 17.261 30.4132C17.4524 30.3013 17.5912 30.1179 17.6469 29.9038C17.7026 29.6892 17.6708 29.4618 17.5585 29.2708C17.3262 28.8774 16.8205 28.7446 16.4247 28.9733C15.7077 29.3906 14.9373 29.7092 14.1349 29.9196C13.6748 29.9779 13.3494 30.3985 13.4077 30.8586C13.466 31.3186 13.8866 31.6441 14.3467 31.5858L14.3466 31.5276Z" fill="#FFBB01"/>
<path d="M11.0244 36.8592C11.4846 36.8582 11.8569 36.4843 11.856 36.0241L11.829 22.941L13.6429 25.6456C13.7967 25.8781 14.0566 26.0183 14.3354 26.019C14.4993 26.0207 14.6596 25.9707 14.7932 25.8764C15.1732 25.6213 15.2763 25.108 15.0244 24.7261L11.6808 19.7329C11.6808 19.7329 11.6808 19.7329 11.6388 19.6911C11.4805 19.4945 11.241 19.3802 10.9884 19.3808C10.7357 19.3813 10.4966 19.4965 10.3392 19.6938C10.3392 19.6938 10.3392 19.6938 10.2973 19.7358L6.97432 24.7426C6.77166 25.1223 6.89144 25.5936 7.25082 25.8305C7.60978 26.0674 8.09018 25.992 8.35967 25.6565L10.1624 22.9445L10.1893 36.0275C10.1903 36.4877 10.5641 36.8601 11.0244 36.8592Z" fill="#FFBB01"/>
<path d="M32.273 16.1237C31.8904 15.8734 31.3771 15.9786 31.1236 16.3596L29.3209 19.0717L29.3008 9.32151C29.2999 8.86131 28.926 8.48895 28.4658 8.4899C28.0056 8.49084 27.6332 8.86474 27.6342 9.32494L27.6542 19.0751L25.8404 16.3705C25.6901 16.0921 25.3956 15.9226 25.0794 15.933C24.7633 15.9434 24.4805 16.1316 24.3488 16.4191C24.2176 16.7067 24.2602 17.0439 24.4588 17.2901L27.8025 22.2832C27.958 22.5132 28.2174 22.6506 28.4949 22.65C28.7724 22.6495 29.0314 22.511 29.1859 22.2804L32.5089 17.2735C32.7592 16.8905 32.654 16.3772 32.273 16.1237Z" fill="#FFBB01"/>
</svg>
