<svg width="33" height="29" viewBox="0 0 33 29" fill="none" xmlns="http://www.w3.org/2000/svg">
<path d="M21.7136 4.5777C20.9134 4.5777 20.1588 4.89249 19.6 5.4413C19.0412 4.89249 18.2865 4.5777 17.4864 4.5777C15.8213 4.5777 14.4666 5.93237 14.4666 7.59745C14.4666 9.12435 15.3281 10.6799 16.958 12.0957C18.1522 13.1331 19.3324 13.7342 19.3821 13.7592C19.4506 13.7938 19.5253 13.8111 19.6 13.8111C19.6747 13.8111 19.7494 13.7938 19.8179 13.7592C19.8675 13.7342 21.0478 13.1331 22.242 12.0957C23.8719 10.6799 24.7333 9.12435 24.7333 7.59745C24.7333 5.93237 23.3787 4.5777 21.7136 4.5777ZM19.6 12.7774C18.7136 12.276 15.4334 10.2417 15.4334 7.59745C15.4334 6.46546 16.3544 5.54449 17.4864 5.54449C18.1753 5.54449 18.8149 5.88822 19.1973 6.46398C19.2869 6.59888 19.438 6.67996 19.6 6.67996C19.762 6.67996 19.9131 6.59888 20.0027 6.46398C20.3851 5.88822 21.0247 5.54449 21.7137 5.54449C22.8456 5.54449 23.7666 6.46546 23.7666 7.59745C23.7666 10.2417 20.4864 12.276 19.6 12.7774Z" fill="#FFBB01"/>
<path d="M29.4166 4.5777H26.8333C26.5663 4.5777 26.3499 4.79413 26.3499 5.0611C26.3499 5.32806 26.5663 5.54449 26.8333 5.54449H29.4166C29.6836 5.54449 29.9 5.32806 29.9 5.0611C29.9 4.79413 29.6836 4.5777 29.4166 4.5777Z" fill="#FFBB01"/>
<path d="M28.3832 9.74442H26.8333C26.5663 9.74442 26.3499 9.96085 26.3499 10.2278C26.3499 10.4948 26.5663 10.7112 26.8333 10.7112H28.3832C28.6502 10.7112 28.8666 10.4948 28.8666 10.2278C28.8666 9.96085 28.6502 9.74442 28.3832 9.74442Z" fill="#FFBB01"/>
<path d="M29.4166 7.16119H26.8333C26.5663 7.16119 26.3499 7.37763 26.3499 7.64459C26.3499 7.91156 26.5663 8.12799 26.8333 8.12799H29.4166C29.6836 8.12799 29.9 7.91156 29.9 7.64459C29.9 7.37763 29.6836 7.16119 29.4166 7.16119Z" fill="#FFBB01"/>
<path d="M9.78343 12.2612C10.0504 12.2612 10.2668 12.0447 10.2668 11.7778C10.2668 11.5108 10.0504 11.2944 9.78343 11.2944H8.75031C8.48334 11.2944 8.26691 11.5108 8.26691 11.7778C8.26691 12.0447 8.48334 12.2612 8.75031 12.2612H9.78343Z" fill="#FFBB01"/>
<path d="M4.61658 12.2612H6.68334C6.9503 12.2612 7.16673 12.0447 7.16673 11.7778C7.16673 11.5108 6.9503 11.2944 6.68334 11.2944H4.61658C4.34962 11.2944 4.13319 11.5108 4.13319 11.7778C4.13319 12.0447 4.34962 12.2612 4.61658 12.2612Z" fill="#FFBB01"/>
<path d="M4.61658 14.8447H9.78327C10.0502 14.8447 10.2667 14.6282 10.2667 14.3613C10.2667 14.0943 10.0502 13.8779 9.78327 13.8779H4.61658C4.34962 13.8779 4.13319 14.0943 4.13319 14.3613C4.13319 14.6282 4.34962 14.8447 4.61658 14.8447Z" fill="#FFBB01"/>
<path d="M10.2667 16.9445C10.2667 16.6775 10.0502 16.4611 9.78327 16.4611H4.61658C4.34962 16.4611 4.13319 16.6775 4.13319 16.9445C4.13319 17.2115 4.34962 17.4279 4.61658 17.4279H9.78327C10.0502 17.4279 10.2667 17.2115 10.2667 16.9445Z" fill="#FFBB01"/>
<path d="M8.75017 20.0111H17.0167C17.2837 20.0111 17.5001 19.7947 17.5001 19.5277C17.5001 19.2607 17.2837 19.0443 17.0167 19.0443H8.75017C8.48321 19.0443 8.26678 19.2607 8.26678 19.5277C8.26678 19.7947 8.48321 20.0111 8.75017 20.0111Z" fill="#FFBB01"/>
<path d="M4.61658 19.0443C4.34962 19.0443 4.13319 19.2607 4.13319 19.5277C4.13319 19.7947 4.34962 20.0111 4.61658 20.0111H6.68334C6.9503 20.0111 7.16673 19.7947 7.16673 19.5277C7.16673 19.2607 6.9503 19.0443 6.68334 19.0443H4.61658Z" fill="#FFBB01"/>
<path d="M28.3832 12.3279H26.8333C26.5663 12.3279 26.3499 12.5443 26.3499 12.8113C26.3499 13.0783 26.5663 13.2947 26.8333 13.2947H28.3832C28.6502 13.2947 28.8666 13.0783 28.8666 12.8113C28.8666 12.5443 28.6502 12.3279 28.3832 12.3279Z" fill="#FFBB01"/>
<path d="M30.9666 0.444519H13.4C12.2788 0.444519 11.3666 1.35666 11.3666 2.47788V15.3945C11.3666 16.5157 12.2788 17.4278 13.4 17.4278H24.5664L28.1927 21.0542C28.3846 21.246 28.6391 21.3477 28.8989 21.3477C29.0279 21.3477 29.1582 21.3226 29.2826 21.271C29.6577 21.1157 29.9 20.753 29.9 20.3471V17.4279H30.9666C32.0878 17.4279 33 16.5158 33 15.3945V2.47788C33 1.35666 32.0878 0.444519 30.9666 0.444519ZM32.0332 15.3945C32.0332 15.9827 31.5547 16.4611 30.9666 16.4611H29.4166C29.1497 16.4611 28.9332 16.6775 28.9332 16.9445V20.3471C28.9332 20.3585 28.9332 20.3693 28.9127 20.3779C28.8921 20.3862 28.8845 20.3787 28.8764 20.3706L25.1085 16.6027C25.0179 16.512 24.8949 16.4611 24.7667 16.4611H13.4C12.8119 16.4611 12.3334 15.9827 12.3334 15.3945V2.47788C12.3334 1.88975 12.8119 1.41131 13.4 1.41131H30.9665C31.5547 1.41131 32.0331 1.88975 32.0331 2.47788V15.3945H32.0332Z" fill="#FFBB01"/>
<path d="M21.1499 18.5277C20.883 18.5277 20.6666 18.7442 20.6666 19.0111V22.1111C20.6666 22.6993 20.1881 23.1777 19.6 23.1777H8.23336C8.10517 23.1777 7.98219 23.2286 7.89157 23.3193L4.12364 27.0873C4.11559 27.0954 4.10785 27.103 4.08736 27.0945C4.06679 27.086 4.06679 27.0752 4.06679 27.0638V23.6612C4.06679 23.3942 3.85036 23.1778 3.5834 23.1778H2.03337C1.44523 23.1778 0.966796 22.6993 0.966796 22.1112V9.19456C0.966796 8.60642 1.44523 8.12799 2.03337 8.12799H9.78346C10.0504 8.12799 10.2669 7.91156 10.2669 7.64459C10.2669 7.37763 10.0504 7.16119 9.78346 7.16119H2.03337C0.91214 7.16119 0 8.07333 0 9.19456V22.1111C0 23.2324 0.91214 24.1445 2.03337 24.1445H3.09993V27.0637C3.09993 27.4696 3.34228 27.8323 3.71733 27.9876C3.84179 28.0392 3.97205 28.0643 4.10108 28.0643C4.36083 28.0643 4.61542 27.9626 4.80723 27.7709L8.43362 24.1445H19.6C20.7213 24.1445 21.6334 23.2324 21.6334 22.1111V19.0111C21.6333 18.7442 21.4169 18.5277 21.1499 18.5277Z" fill="#FFBB01"/>
</svg>
