<svg width="33" height="36" viewBox="0 0 33 36" fill="none" xmlns="http://www.w3.org/2000/svg">
<path d="M17.4555 22.2663C18.0645 22.2189 18.6196 21.9083 18.9799 21.4129L24.4568 13.8413C24.6247 13.609 24.5995 13.2885 24.396 13.0849C24.1924 12.8819 23.8718 12.8568 23.6396 13.0241L16.0669 18.5027C15.5732 18.8619 15.2625 19.417 15.2152 20.026C15.1678 20.6349 15.3883 21.2309 15.8194 21.6621C16.2119 22.0551 16.7413 22.2727 17.2917 22.2727C17.3461 22.2727 17.4005 22.2704 17.4555 22.2663ZM16.3816 20.1172C16.402 19.8499 16.5389 19.606 16.7542 19.4492L21.3735 16.1074L18.0329 20.7256C17.8749 20.9426 17.631 21.0789 17.3637 21.0999C17.0975 21.1175 16.8361 21.025 16.646 20.8349C16.4576 20.646 16.3605 20.3839 16.3816 20.1172Z" fill="#FFBB01"/>
<path d="M30.5584 11.4886C30.5526 11.4763 30.5526 11.4635 30.5461 11.4512C30.5391 11.4395 30.528 11.4331 30.5204 11.4219C29.929 10.4076 29.2294 9.46411 28.435 8.60891L29.6915 7.35302L30.5186 8.18014L33 5.69819L30.5186 3.21683L28.0367 5.69819L28.8644 6.5259L27.6079 7.78179C26.7527 6.98743 25.8098 6.28724 24.7949 5.69585C24.7838 5.68825 24.7773 5.67714 24.7657 5.67012C24.7534 5.6631 24.7405 5.66368 24.7282 5.65725C22.919 4.61487 20.8863 3.92053 18.719 3.66608V2.9694H19.5964C20.4031 2.9694 21.0588 2.31367 21.0588 1.50702C21.0588 0.700377 20.4025 0.0446472 19.5959 0.0446472H14.3313C13.5247 0.0446472 12.8689 0.700377 12.8689 1.50702C12.8689 2.31367 13.5247 2.9694 14.3313 2.9694H15.2087V3.6456C14.577 3.71287 13.9464 3.81582 13.3228 3.95855C13.0081 4.0305 12.811 4.34462 12.8835 4.65932C12.9555 4.97403 13.2696 5.17174 13.5843 5.09862C14.1225 4.9752 14.6659 4.88219 15.2105 4.8196L15.8381 4.77105C16.03 4.75642 16.2067 4.74589 16.3786 4.73771V5.89415C16.3786 6.21763 16.6401 6.4791 16.9636 6.4791C17.2871 6.4791 17.5485 6.21763 17.5485 5.89415V4.7418C19.7485 4.843 21.8216 5.4338 23.6648 6.40598L23.088 7.4045C22.9266 7.68469 23.0225 8.04209 23.3021 8.20354C23.3939 8.25677 23.4946 8.28192 23.594 8.28192C23.7964 8.28192 23.9929 8.17721 24.1011 7.98945L24.6762 6.99327C26.5065 8.1544 28.0613 9.7092 29.2224 11.5395L28.2262 12.1145C27.9472 12.276 27.8513 12.6334 28.0133 12.9136C28.1221 13.1013 28.3181 13.206 28.5204 13.206C28.6199 13.206 28.7205 13.1809 28.8123 13.1277L29.8109 12.5509C30.7965 14.4204 31.389 16.5274 31.4774 18.7625H30.3221C29.9986 18.7625 29.7371 19.024 29.7371 19.3474C29.7371 19.6709 29.9986 19.9324 30.3221 19.9324H31.4774C31.389 22.1675 30.7965 24.2745 29.8109 26.144L28.8123 25.5672C28.5327 25.4058 28.1747 25.5005 28.0133 25.7813C27.8518 26.0615 27.9478 26.4189 28.2274 26.5803L29.2236 27.1554C28.0624 28.9857 26.5076 30.5405 24.6773 31.7016L24.1023 30.7054C23.9403 30.4246 23.5817 30.3293 23.3033 30.4913C23.0231 30.6528 22.9272 31.0108 23.0892 31.2904L23.6659 32.2889C21.8228 33.2611 19.7497 33.8519 17.5497 33.9531V32.8019C17.5497 32.4784 17.2882 32.2169 16.9647 32.2169C16.6413 32.2169 16.3798 32.4784 16.3798 32.8019V33.9577C15.4456 33.9256 14.5085 33.8086 13.5861 33.5968C13.2714 33.5214 12.9573 33.7214 12.8853 34.0361C12.8128 34.3508 13.0099 34.6649 13.3246 34.7369C14.4922 35.006 15.6849 35.1417 16.8682 35.1417C16.8969 35.1417 16.9244 35.1399 16.953 35.1393C16.9571 35.1393 16.9601 35.1417 16.9636 35.1417C16.9683 35.1417 16.9724 35.1388 16.977 35.1388C19.7889 35.1195 22.427 34.3602 24.7095 33.0487C24.7276 33.0405 24.7469 33.0364 24.7645 33.0259C24.7762 33.0189 24.7826 33.0078 24.7937 33.0002C27.1563 31.6232 29.1306 29.6513 30.5105 27.2905C30.5216 27.2747 30.5356 27.2624 30.5455 27.2448C30.5526 27.2326 30.552 27.2197 30.5578 27.2074C31.8939 24.891 32.6619 22.2084 32.6619 19.348C32.6619 16.4876 31.8939 13.805 30.5584 11.4886ZM30.5181 4.87107L31.3452 5.69819L30.5181 6.5259L29.6904 5.69819L30.5181 4.87107ZM16.3786 3.56663V1.7995H14.3313C14.1704 1.7995 14.0388 1.66789 14.0388 1.50702C14.0388 1.34616 14.1704 1.21455 14.3313 1.21455H19.5959C19.7567 1.21455 19.8883 1.34616 19.8883 1.50702C19.8883 1.66789 19.7567 1.7995 19.5959 1.7995H17.5485V3.56663C17.345 3.55845 17.1508 3.55435 16.9636 3.55435C16.9472 3.55435 16.9285 3.55552 16.9121 3.55552C16.8975 3.55552 16.8829 3.55435 16.8682 3.55435C16.7723 3.55435 16.6764 3.56079 16.5804 3.56254C16.5126 3.56429 16.4488 3.56371 16.3786 3.56663Z" fill="#FFBB01"/>
<path d="M11.6991 8.23407H8.77438C8.4509 8.23407 8.18943 8.49554 8.18943 8.81902C8.18943 9.1425 8.4509 9.40397 8.77438 9.40397H11.6991C12.0226 9.40397 12.2841 9.1425 12.2841 8.81902C12.2841 8.49554 12.0226 8.23407 11.6991 8.23407Z" fill="#FFBB01"/>
<path d="M11.699 12.3286H5.84949C5.52601 12.3286 5.26454 12.5901 5.26454 12.9135C5.26454 13.237 5.52601 13.4985 5.84949 13.4985H11.699C12.0225 13.4985 12.2839 13.237 12.2839 12.9135C12.2839 12.5901 12.0225 12.3286 11.699 12.3286Z" fill="#FFBB01"/>
<path d="M11.699 16.4231H2.92473C2.60126 16.4231 2.33978 16.6846 2.33978 17.008C2.33978 17.3315 2.60126 17.593 2.92473 17.593H11.699C12.0225 17.593 12.2839 17.3315 12.2839 17.008C12.2839 16.6846 12.0225 16.4231 11.699 16.4231Z" fill="#FFBB01"/>
<path d="M11.699 20.518H0.584951C0.261473 20.518 0 20.7795 0 21.103C0 21.4265 0.261473 21.6879 0.584951 21.6879H11.699C12.0225 21.6879 12.284 21.4265 12.284 21.103C12.284 20.7795 12.0225 20.518 11.699 20.518Z" fill="#FFBB01"/>
<path d="M11.6989 24.6125H4.09456C3.77108 24.6125 3.50961 24.874 3.50961 25.1975C3.50961 25.521 3.77108 25.7825 4.09456 25.7825H11.6989C12.0224 25.7825 12.2839 25.521 12.2839 25.1975C12.2839 24.874 12.0224 24.6125 11.6989 24.6125Z" fill="#FFBB01"/>
<path d="M11.699 28.7072H7.60436C7.28088 28.7072 7.01941 28.9687 7.01941 29.2921C7.01941 29.6156 7.28088 29.8771 7.60436 29.8771H11.699C12.0225 29.8771 12.284 29.6156 12.284 29.2921C12.284 28.9687 12.0225 28.7072 11.699 28.7072Z" fill="#FFBB01"/>
</svg>
